<svg width="48" height="47" viewBox="0 0 48 47" fill="none" xmlns="http://www.w3.org/2000/svg">
<rect width="48" height="47" rx="5" fill="#121416"/>
<path d="M29.017 40.44H30.217V29.56H29.017V28H34.677C35.3436 28 35.9303 28.0933 36.437 28.28C36.957 28.4667 37.3903 28.72 37.737 29.04C38.097 29.36 38.3636 29.7467 38.537 30.2C38.7236 30.64 38.817 31.12 38.817 31.64V31.88C38.817 32.2667 38.757 32.62 38.637 32.94C38.517 33.26 38.3503 33.5467 38.137 33.8C37.9236 34.0533 37.6703 34.2733 37.377 34.46C37.097 34.6333 36.7903 34.7667 36.457 34.86V35.1C37.1236 35.2867 37.6836 35.6467 38.137 36.18C38.5903 36.7 38.817 37.34 38.817 38.1V38.34C38.817 38.86 38.7236 39.3467 38.537 39.8C38.3636 40.24 38.097 40.6267 37.737 40.96C37.3903 41.28 36.957 41.5333 36.437 41.72C35.9303 41.9067 35.3436 42 34.677 42H29.017V40.44ZM31.897 40.44H34.557C35.3436 40.44 35.9836 40.2467 36.477 39.86C36.9703 39.46 37.217 38.9133 37.217 38.22V38.1C37.217 37.38 36.9836 36.8133 36.517 36.4C36.0503 35.9733 35.417 35.76 34.617 35.76H31.897V40.44ZM31.897 34.2H34.617C35.417 34.2 36.0503 33.9933 36.517 33.58C36.9836 33.1667 37.217 32.6 37.217 31.88V31.76C37.217 31.08 36.9703 30.5467 36.477 30.16C35.9836 29.76 35.3436 29.56 34.557 29.56H31.897V34.2Z" fill="white"/>
<path d="M8.79695 28H11.997L13.877 41.28H14.117L15.997 28H19.197V42H17.637V28.72H17.397L15.517 42H12.477L10.597 28.72H10.357V42H8.79695V28Z" fill="white"/>
<path d="M17.977 17.8C17.977 19.2533 17.617 20.3667 16.897 21.14C16.1903 21.9 15.1503 22.28 13.777 22.28C12.4036 22.28 11.317 21.9 10.517 21.14C9.73029 20.3667 9.33695 19.2533 9.33695 17.8V16.72H11.017V17.8C11.017 18.68 11.2436 19.3867 11.697 19.92C12.1503 20.4533 12.8436 20.72 13.777 20.72C14.7103 20.72 15.3636 20.4533 15.737 19.92C16.1103 19.3867 16.297 18.68 16.297 17.8V9.56H14.857V8H19.177V9.56H17.977V17.8Z" fill="white"/>
</svg>
